<?xml version="1.0" encoding="iso-8859-1"?>
<!-- Generator: Adobe Illustrator 18.0.0, SVG Export Plug-In . SVG Version: 6.00 Build 0)  -->
<!DOCTYPE svg PUBLIC "-//W3C//DTD SVG 1.1//EN" "http://www.w3.org/Graphics/SVG/1.1/DTD/svg11.dtd">
<svg version="1.1" id="Capa_1" xmlns="http://www.w3.org/2000/svg" xmlns:xlink="http://www.w3.org/1999/xlink" x="0px" y="0px"
	 viewBox="0 0 493.816 493.816" style="enable-background:new 0 0 493.816 493.816;" xml:space="preserve">
<path id="salad-bowl" style="fill:#000100;" d="M493.816,119.648c0-12.525-110.542-22.68-246.908-22.68S0,107.123,0,119.648
	c0,0.078,0.023,0.154,0.032,0.232c-0.007,0-0.032,0.001-0.032,0.001c0,95.993,97.135,210.944,186.605,250.883v12.559
	c0,7.47,6.054,13.524,13.519,13.524h93.569c7.465,0,13.519-6.055,13.519-13.524v-13.009
	c89.478-40.309,186.604-154.758,186.604-250.432c0,0-0.024-0.002-0.032-0.002C493.793,119.803,493.816,119.727,493.816,119.648z"/>
<g>
</g>
<g>
</g>
<g>
</g>
<g>
</g>
<g>
</g>
<g>
</g>
<g>
</g>
<g>
</g>
<g>
</g>
<g>
</g>
<g>
</g>
<g>
</g>
<g>
</g>
<g>
</g>
<g>
</g>
</svg>
